<svg xmlns="http://www.w3.org/2000/svg" version="1.1" xmlns:xlink="http://www.w3.org/1999/xlink" xmlns:svgjs="http://svgjs.dev/svgjs" width="1000" height="999" viewBox="0 0 1000 999"><g transform="matrix(1,0,0,1,-0.215743440233382,-0.21552769679306039)"><svg viewBox="0 0 343 343" data-background-color="#ffffff" preserveAspectRatio="xMidYMid meet" height="999" width="1000" xmlns="http://www.w3.org/2000/svg" xmlns:xlink="http://www.w3.org/1999/xlink"><g id="tight-bounds" transform="matrix(1,0,0,1,0.0740000000000407,0.07400000000001228)"><svg viewBox="0 0 342.85155851775386 342.85155851775386" height="342.85155851775386" width="342.85155851775386"><g><svg></svg></g><g><svg viewBox="0 0 342.85155851775386 342.85155851775386" height="342.85155851775386" width="342.85155851775386"><g><path d="M0 171.426c0-94.676 76.75-171.426 171.426-171.426 94.676 0 171.426 76.75 171.426 171.426 0 94.676-76.75 171.426-171.426 171.426-94.676 0-171.426-76.75-171.426-171.426zM171.426 334.918c90.294 0 163.492-73.198 163.492-163.492 0-90.294-73.198-163.492-163.492-163.493-90.294 0-163.492 73.198-163.493 163.493 0 90.294 73.198 163.492 163.493 163.492z" data-fill-palette-color="tertiary" fill="#233565" stroke="transparent"></path><ellipse rx="164.56874808852186" ry="164.56874808852186" cx="171.42577925887693" cy="171.42577925887693" fill="#233565" stroke="transparent" stroke-width="0" fill-opacity="1" data-fill-palette-color="tertiary"></ellipse></g><g transform="matrix(1,0,0,1,64.84655864529837,102.7913715968566)"><svg viewBox="0 0 213.1584412271571 137.26881532404065" height="137.26881532404065" width="213.1584412271571"><g><svg viewBox="0 0 213.1584412271571 137.26881532404065" height="137.26881532404065" width="213.1584412271571"><g><svg viewBox="0 0 213.1584412271571 137.26881532404065" height="137.26881532404065" width="213.1584412271571"><g><svg viewBox="0 0 213.1584412271571 137.26881532404065" height="137.26881532404065" width="213.1584412271571"><g id="textblocktransform"><svg viewBox="0 0 213.1584412271571 137.26881532404065" height="137.26881532404065" width="213.1584412271571" id="textblock"><g><svg viewBox="0 0 213.1584412271571 87.97294313956134" height="87.97294313956134" width="213.1584412271571"><g transform="matrix(1,0,0,1,0,0)"><svg width="213.1584412271571" viewBox="2.25 -38.150001525878906 121.13999938964844 50" height="87.97294313956134" data-palette-color="#ffffff"><path d="M12.85 0.3L12.85 0.3Q11.8 0.3 10.35 0.25 8.9 0.2 7.38 0.08 5.85-0.05 4.58-0.2 3.3-0.35 2.55-0.55L2.55-0.55 2.55-3.55 13.8-3.55Q15.25-3.55 16.3-3.78 17.35-4 17.93-4.75 18.5-5.5 18.5-6.95L18.5-6.95 18.5-8.05Q18.5-9.55 17.5-10.4 16.5-11.25 14.2-11.25L14.2-11.25 10.3-11.25Q7.95-11.25 6.13-11.88 4.3-12.5 3.28-14 2.25-15.5 2.25-18.05L2.25-18.05 2.25-19.5Q2.25-22.05 3.23-23.7 4.2-25.35 6.35-26.18 8.5-27 12.05-27L12.05-27Q13.55-27 15.38-26.88 17.2-26.75 18.95-26.55 20.7-26.35 21.75-26.1L21.75-26.1 21.75-23.1 11.15-23.1Q8.95-23.1 7.78-22.35 6.6-21.6 6.6-19.5L6.6-19.5 6.6-18.5Q6.6-17.2 7.15-16.5 7.7-15.8 8.72-15.6 9.75-15.4 11.15-15.4L11.15-15.4 15.15-15.4Q18.95-15.4 20.9-13.63 22.85-11.85 22.85-8.65L22.85-8.65 22.85-6.6Q22.85-3.9 21.6-2.4 20.35-0.9 18.13-0.3 15.9 0.3 12.85 0.3ZM36.4 0.3L36.4 0.3Q32.65 0.3 30.57-1.73 28.5-3.75 28.5-7.9L28.5-7.9 28.5-26.75 33.5-26.75 33.5-9.25Q33.5-6.25 34.87-5.2 36.25-4.15 38.75-4.15L38.75-4.15Q40.75-4.15 42.57-4.78 44.4-5.4 46.15-6.5L46.15-6.5 46.15-26.75 51.15-26.75 51.15 0 47.15 0 46.15-2.85Q44.2-1.6 41.67-0.65 39.15 0.3 36.4 0.3ZM62.45-31.25L58.7-31.25Q57.84-31.25 57.84-32.1L57.84-32.1 57.84-36.3Q57.84-37.2 58.7-37.2L58.7-37.2 62.45-37.2Q62.84-37.2 63.05-36.95 63.25-36.7 63.25-36.3L63.25-36.3 63.25-32.1Q63.25-31.25 62.45-31.25L62.45-31.25ZM61.8 11.85L58.05 11.85 58.05-26.75 63.05-26.75 63.05-0.65Q63.05 2.8 62.7 6.18 62.34 9.55 61.8 11.85L61.8 11.85ZM74.44-31.25L70.74-31.25Q69.84-31.25 69.84-32.1L69.84-32.1 69.84-36.3Q69.84-37.2 70.74-37.2L70.74-37.2 74.44-37.2Q74.84-37.2 75.04-36.95 75.24-36.7 75.24-36.3L75.24-36.3 75.24-32.1Q75.24-31.25 74.44-31.25L74.44-31.25ZM75.04 0L70.04 0 70.04-26.75 75.04-26.75 75.04 0ZM95.34 0L91.29 0Q88.59 0 86.82-0.88 85.04-1.75 84.22-3.7 83.39-5.65 83.44-8.9L83.44-8.9 83.64-22.65 79.39-22.65 79.39-25.9 83.74-26.75 84.49-34.25 88.44-34.25 88.44-26.75 95.69-26.75 95.69-22.65 88.44-22.65 88.44-8.95Q88.44-7.4 88.74-6.45 89.04-5.5 89.59-5 90.14-4.5 90.79-4.28 91.44-4.05 92.04-4L92.04-4 95.34-3.7 95.34 0ZM105.74 0L100.74 0 100.74-38.15 105.74-38.15 105.74-23.85Q107.49-25.15 109.99-26.18 112.49-27.2 115.14-27.2L115.14-27.2Q118.04-27.2 119.86-26 121.69-24.8 122.54-22.73 123.39-20.65 123.39-18.05L123.39-18.05 123.39 0 118.39 0 118.39-17.45Q118.39-19 117.76-20.18 117.14-21.35 116.01-22 114.89-22.65 113.34-22.65L113.34-22.65Q111.84-22.65 110.56-22.35 109.29-22.05 108.14-21.5 106.99-20.95 105.74-20.25L105.74-20.25 105.74 0Z" opacity="1" transform="matrix(1,0,0,1,0,0)" fill="#ffffff" class="undefined-text-0" data-fill-palette-color="quaternary" id="text-0"></path></svg></g></svg></g><g transform="matrix(1,0,0,1,0,108.74124366417642)"><svg viewBox="0 0 213.1584412271571 28.527571659864225" height="28.527571659864225" width="213.1584412271571"><g transform="matrix(1,0,0,1,0,0)"><svg width="213.1584412271571" viewBox="4.300000190734863 -27.25 293.30999755859375 39.26000213623047" height="28.527571659864225" data-palette-color="#ffffff"><path d="M16.75 0.49L16.75 0.49Q14.14 0.49 11.98-0.48 9.81-1.44 8.35-3.44L8.35-3.44 8.06-3.44Q8.35-1.1 8.35 1L8.35 1 8.35 12.01 4.3 12.01 4.3-26.76 7.59-26.76 8.15-23.1 8.35-23.1Q9.91-25.29 11.99-26.27 14.06-27.25 16.75-27.25L16.75-27.25Q22.07-27.25 24.96-23.61 27.86-19.97 27.86-13.4L27.86-13.4Q27.86-6.81 24.91-3.16 21.97 0.49 16.75 0.49ZM16.16-23.8L16.16-23.8Q12.06-23.8 10.23-21.53 8.4-19.26 8.35-14.31L8.35-14.31 8.35-13.4Q8.35-7.76 10.23-5.33 12.11-2.91 16.26-2.91L16.26-2.91Q19.73-2.91 21.69-5.71 23.66-8.52 23.66-13.45L23.66-13.45Q23.66-18.46 21.69-21.13 19.73-23.8 16.16-23.8ZM47.14-27.25L47.14-27.25Q48.92-27.25 50.34-26.95L50.34-26.95 49.78-23.19Q48.12-23.56 46.85-23.56L46.85-23.56Q43.6-23.56 41.29-20.92 38.99-18.29 38.99-14.36L38.99-14.36 38.99 0 34.93 0 34.93-26.76 38.28-26.76 38.74-21.8 38.94-21.8Q40.43-24.41 42.53-25.83 44.63-27.25 47.14-27.25ZM78.44-13.4L78.44-13.4Q78.44-6.86 75.14-3.19 71.85 0.49 66.04 0.49L66.04 0.49Q62.45 0.49 59.66-1.2 56.88-2.88 55.37-6.03 53.85-9.18 53.85-13.4L53.85-13.4Q53.85-19.95 57.12-23.6 60.4-27.25 66.21-27.25L66.21-27.25Q71.82-27.25 75.13-23.51 78.44-19.78 78.44-13.4ZM58.05-13.4L58.05-13.4Q58.05-8.28 60.1-5.59 62.15-2.91 66.13-2.91L66.13-2.91Q70.11-2.91 72.18-5.58 74.24-8.25 74.24-13.4L74.24-13.4Q74.24-18.51 72.18-21.15 70.11-23.8 66.08-23.8L66.08-23.8Q62.1-23.8 60.08-21.19 58.05-18.58 58.05-13.4ZM98.19-26.76L107.44-26.76 107.44-24.19 102.48-23.61Q103.17-22.75 103.7-21.37 104.24-20 104.24-18.26L104.24-18.26Q104.24-14.33 101.56-11.99 98.87-9.64 94.18-9.64L94.18-9.64Q92.99-9.64 91.94-9.84L91.94-9.84Q89.35-8.47 89.35-6.4L89.35-6.4Q89.35-5.3 90.25-4.77 91.15-4.25 93.35-4.25L93.35-4.25 98.09-4.25Q102.43-4.25 104.77-2.42 107.1-0.59 107.1 2.91L107.1 2.91Q107.1 7.35 103.53 9.68 99.97 12.01 93.13 12.01L93.13 12.01Q87.88 12.01 85.04 10.06 82.19 8.11 82.19 4.54L82.19 4.54Q82.19 2.1 83.76 0.32 85.32-1.46 88.15-2.1L88.15-2.1Q87.13-2.56 86.43-3.54 85.73-4.52 85.73-5.81L85.73-5.81Q85.73-7.28 86.52-8.37 87.3-9.47 88.98-10.5L88.98-10.5Q86.91-11.35 85.6-13.4 84.29-15.45 84.29-18.09L84.29-18.09Q84.29-22.49 86.93-24.87 89.57-27.25 94.4-27.25L94.4-27.25Q96.5-27.25 98.19-26.76L98.19-26.76ZM86.1 4.49L86.1 4.49Q86.1 6.67 87.93 7.79 89.76 8.91 93.18 8.91L93.18 8.91Q98.28 8.91 100.74 7.39 103.19 5.86 103.19 3.25L103.19 3.25Q103.19 1.07 101.85 0.23 100.51-0.61 96.79-0.61L96.79-0.61 91.94-0.61Q89.18-0.61 87.64 0.71 86.1 2.03 86.1 4.49ZM88.3-18.19L88.3-18.19Q88.3-15.38 89.89-13.94 91.47-12.5 94.3-12.5L94.3-12.5Q100.24-12.5 100.24-18.26L100.24-18.26Q100.24-24.29 94.23-24.29L94.23-24.29Q91.37-24.29 89.84-22.75 88.3-21.22 88.3-18.19ZM125.14-27.25L125.14-27.25Q126.92-27.25 128.33-26.95L128.33-26.95 127.77-23.19Q126.11-23.56 124.84-23.56L124.84-23.56Q121.6-23.56 119.29-20.92 116.98-18.29 116.98-14.36L116.98-14.36 116.98 0 112.93 0 112.93-26.76 116.27-26.76 116.74-21.8 116.93-21.8Q118.42-24.41 120.52-25.83 122.62-27.25 125.14-27.25ZM152.8 0L149.79 0 148.99-3.81 148.79-3.81Q146.79-1.29 144.8-0.4 142.81 0.49 139.83 0.49L139.83 0.49Q135.85 0.49 133.59-1.56 131.34-3.61 131.34-7.4L131.34-7.4Q131.34-15.5 144.3-15.89L144.3-15.89 148.84-16.04 148.84-17.7Q148.84-20.85 147.49-22.35 146.13-23.85 143.15-23.85L143.15-23.85Q139.81-23.85 135.58-21.8L135.58-21.8 134.34-24.9Q136.32-25.98 138.67-26.59 141.03-27.2 143.4-27.2L143.4-27.2Q148.18-27.2 150.49-25.07 152.8-22.95 152.8-18.26L152.8-18.26 152.8 0ZM140.64-2.86L140.64-2.86Q144.42-2.86 146.58-4.93 148.74-7.01 148.74-10.74L148.74-10.74 148.74-13.16 144.69-12.99Q139.86-12.82 137.72-11.49 135.58-10.16 135.58-7.35L135.58-7.35Q135.58-5.15 136.91-4 138.24-2.86 140.64-2.86ZM199.3 0L195.25 0 195.25-17.41Q195.25-20.61 193.88-22.2 192.51-23.8 189.63-23.8L189.63-23.8Q185.85-23.8 184.04-21.63 182.24-19.46 182.24-14.94L182.24-14.94 182.24 0 178.18 0 178.18-17.41Q178.18-20.61 176.82-22.2 175.45-23.8 172.54-23.8L172.54-23.8Q168.74-23.8 166.96-21.52 165.19-19.24 165.19-14.04L165.19-14.04 165.19 0 161.14 0 161.14-26.76 164.44-26.76 165.1-23.1 165.29-23.1Q166.44-25.05 168.53-26.15 170.61-27.25 173.2-27.25L173.2-27.25Q179.48-27.25 181.41-22.71L181.41-22.71 181.6-22.71Q182.8-24.8 185.07-26.03 187.34-27.25 190.24-27.25L190.24-27.25Q194.78-27.25 197.04-24.91 199.3-22.58 199.3-17.46L199.3-17.46 199.3 0ZM245.81 0L241.75 0 241.75-17.41Q241.75-20.61 240.39-22.2 239.02-23.8 236.14-23.8L236.14-23.8Q232.36-23.8 230.55-21.63 228.74-19.46 228.74-14.94L228.74-14.94 228.74 0 224.69 0 224.69-17.41Q224.69-20.61 223.32-22.2 221.96-23.8 219.05-23.8L219.05-23.8Q215.24-23.8 213.47-21.52 211.7-19.24 211.7-14.04L211.7-14.04 211.7 0 207.65 0 207.65-26.76 210.94-26.76 211.6-23.1 211.8-23.1Q212.95-25.05 215.03-26.15 217.12-27.25 219.71-27.25L219.71-27.25Q225.98-27.25 227.91-22.71L227.91-22.71 228.11-22.71Q229.3-24.8 231.57-26.03 233.84-27.25 236.75-27.25L236.75-27.25Q241.29-27.25 243.55-24.91 245.81-22.58 245.81-17.46L245.81-17.46 245.81 0ZM265.46 0.49L265.46 0.49Q259.53 0.49 256.1-3.13 252.67-6.74 252.67-13.16L252.67-13.16Q252.67-19.63 255.85-23.44 259.04-27.25 264.41-27.25L264.41-27.25Q269.44-27.25 272.37-23.94 275.3-20.63 275.3-15.21L275.3-15.21 275.3-12.65 256.86-12.65Q256.99-7.93 259.25-5.49 261.5-3.05 265.61-3.05L265.61-3.05Q269.93-3.05 274.15-4.86L274.15-4.86 274.15-1.25Q272-0.32 270.08 0.09 268.17 0.49 265.46 0.49ZM264.36-23.85L264.36-23.85Q261.14-23.85 259.22-21.75 257.3-19.65 256.96-15.94L256.96-15.94 270.95-15.94Q270.95-19.78 269.24-21.81 267.53-23.85 264.36-23.85ZM294.41-27.25L294.41-27.25Q296.19-27.25 297.61-26.95L297.61-26.95 297.05-23.19Q295.39-23.56 294.12-23.56L294.12-23.56Q290.87-23.56 288.56-20.92 286.26-18.29 286.26-14.36L286.26-14.36 286.26 0 282.2 0 282.2-26.76 285.55-26.76 286.01-21.8 286.21-21.8Q287.7-24.41 289.8-25.83 291.9-27.25 294.41-27.25Z" opacity="1" transform="matrix(1,0,0,1,0,0)" fill="#ffffff" class="undefined-text-1" data-fill-palette-color="quaternary" id="text-1"></path></svg></g></svg></g></svg></g></svg></g><g></g></svg></g></svg></g></svg></g></svg></g><defs></defs></svg><rect width="342.85155851775386" height="342.85155851775386" fill="none" stroke="none" visibility="hidden"></rect></g></svg></g></svg>